<svg xmlns="http://www.w3.org/2000/svg" xmlns:xlink="http://www.w3.org/1999/xlink" viewBox="0,0,256,256" width="16px" height="16px" fill-rule="nonzero"><g transform="translate(-126.72,-126.72) scale(1.99,1.99)"><g fill="none" fill-rule="nonzero" stroke="none" stroke-width="1" stroke-linecap="butt" stroke-linejoin="miter" stroke-miterlimit="10" stroke-dasharray="" stroke-dashoffset="0" font-family="none" font-weight="none" font-size="none" text-anchor="none" style="mix-blend-mode: normal"><g transform="translate(-62.48,77.12) scale(3.2,3.2)"><path d="M53.4,18.7l-1.8,-2.7l7.4,-14.9l2.8,5.7l7.7,-5.8v7.4l9.3,2.8l-7.5,4.6l3.9,7.7h-7.5l-1.9,4.7z" fill="#f78f8f"></path><path d="M69,2v6v0.7l0.7,0.3l7.9,2.4l-6.1,3.8l-0.8,0.5l0.4,0.8l3.3,6.6h-6.4h-0.7l-0.3,0.6l-1.5,3.8l-11.8,-9.1l-1.6,-2.4l6.9,-13.8l2.1,4.2l0.5,1.1l1,-0.7l6.4,-4.8M70,0l-8,6l-3,-6l-8,16l2,3l13,10l2,-5h8l-4,-8l8,-5l-10,-3v-8z" fill="#c74343"></path><path d="M51,16l7,-5v3l8,-1l-6,4l4,4l-14,-3z" fill="#ffeea3"></path><path d="M52.1,13l-9.3,3.4l1,-4.5l6.9,-2.6z" fill="#66798f"></path><path transform="translate(-8.17156,5.78836) rotate(-20.049)" d="M9.8,23.3h5v5.3h-5z" fill="#66798f"></path><path d="M13.8,41c-0.3,0 -0.7,-0.2 -0.9,-0.5c-3.5,-5.9 -5.6,-6.5 -9.9,-6.5c-0.6,0 -1,-0.4 -1,-1c0,-0.6 0.4,-1 1,-1c5.1,0 7.9,1 11.6,7.5c0.3,0.5 0.1,1.1 -0.4,1.4c-0.1,0.1 -0.3,0.1 -0.4,0.1zM28.9,37.4v0c3.8,0 7,2 8.3,5.1c1,2.3 1,4.7 0,6.9c-1.1,2.6 -3.7,4.8 -7.1,6c-1,0.4 -2,0.6 -2.8,0.6c-1.3,0 -3.2,-0.4 -4.5,-3.9c-0.1,-0.4 -0.4,-1.1 -0.7,-1.9c-0.3,-0.8 -0.6,-1.6 -0.7,-2c-0.9,-2.4 -1,-4.5 -0.5,-6.2c0.6,-1.8 2,-3.1 4.2,-3.9c1.3,-0.4 2.6,-0.7 3.8,-0.7M28.9,35.4c-1.4,0 -2.9,0.3 -4.4,0.8c-6,2.2 -6.8,7.4 -4.9,12.7c0.3,0.8 1.1,3.1 1.4,3.9c1.2,3.3 3.3,5.2 6.4,5.2c1.1,0 2.2,-0.2 3.5,-0.7c7.8,-2.9 10.7,-9.6 8.2,-15.6c-1.6,-3.9 -5.7,-6.3 -10.2,-6.3z" fill="#66798f"></path><path d="M31,52c-3.9,0 -6.4,-2.6 -7.2,-7.8c-0.1,-0.5 0.3,-1.1 0.8,-1.2c0.5,-0.1 1.1,0.3 1.2,0.8c0.9,5.5 3.2,6.2 5.2,6.2c0.6,0 1,0.4 1,1c0,0.6 -0.4,1 -1,1z" fill="#66798f"></path><path d="M5.2,79.5c-0.9,0 -1.7,-0.5 -2,-1.4c-2.7,-6.9 -5.3,-21.8 3.6,-28.5c0.1,-0.1 0.2,-0.1 0.2,-0.1c0.1,0 0.3,0.2 0.4,0.4c0.3,0.4 0.8,0.9 1.6,0.9c0.1,0 0.2,0 0.4,0c0.3,0.2 0.6,0.4 1.2,0.4c0.6,0 1.4,-0.2 2.2,-0.3c0.8,-0.2 1.6,-0.3 2.2,-0.3c0.7,0 0.8,0.2 0.9,0.3c0.2,0.6 0.7,0.8 1.1,1c0.3,0.1 0.5,0.2 0.6,0.4c0,8.5 0.2,11.4 3.8,20.5c0.2,0.5 0.2,1 0,1.5c-0.2,0.5 -0.7,1 -1.3,1.2l-14.1,3.9c-0.3,0.1 -0.5,0.1 -0.8,0.1z" fill="#b08159"></path><path d="M7,50.1l0.1,0.1c0.4,0.4 1,1.1 2,1.1c0.1,0 0.2,0 0.2,0c0.3,0.2 0.7,0.3 1.3,0.3c0.7,0 1.4,-0.2 2.3,-0.3c0.8,-0.2 1.5,-0.3 2.1,-0.3c0.2,0 0.4,0 0.4,0c0.3,0.8 1,1 1.4,1.2c0.1,0 0.2,0.1 0.2,0.1c0,8.2 0.2,11.4 3.9,20.4c0.1,0.4 0.1,0.8 0,1.2c-0.2,0.4 -0.5,0.7 -1,0.9l-14,4.1v0v0c-0.3,0.1 -0.5,0.1 -0.7,0.1c-0.7,0 -1.3,-0.4 -1.5,-1c-2.6,-6.8 -5.3,-21.3 3.3,-27.9M7,49c-0.2,0 -0.3,0.1 -0.6,0.2c-9.7,7.3 -6,23.1 -3.7,29.1c0.4,1.1 1.4,1.7 2.5,1.7c0.3,0 0.6,-0.1 0.9,-0.2l14.1,-4.1c1.4,-0.5 2.1,-2 1.6,-3.4c-3.7,-9 -3.8,-11.9 -3.8,-20.3c-0.3,-0.9 -1.4,-0.6 -1.7,-1.4c-0.2,-0.5 -0.7,-0.6 -1.3,-0.6c-1.3,0 -3.2,0.6 -4.4,0.6c-0.5,0 -0.8,-0.1 -1,-0.4c-0.2,0.1 -0.4,0.1 -0.6,0.1c-1,0 -1.3,-1.3 -2,-1.3z" fill="#704e34"></path><path d="M9,55.5c-2,0 -3.8,-1.3 -4.5,-3.2l-1.5,-4.2c-1,-2.4 0,-6.1 2.5,-7c4.7,-1.7 5,-5.3 5,-11.1v-2.6l41,-14.7l3.5,8.9l-2.1,0.8c-0.8,0.3 -1.3,1 -1.5,1.9c-0.1,0.6 -0.1,1.3 0.1,2l-11,4.2c-2.8,1.1 -3.6,4.8 -2.8,7.6l1.1,3.9l-15.8,5.7c-0.8,0.3 -1.6,1 -2.1,1.8c-0.5,0.8 -0.7,1.5 -0.6,2.2l-9.6,3.5c-0.6,0.2 -1.2,0.3 -1.7,0.3z" fill="#e1ebf2"></path><path d="M51.2,13.3l3.2,8l-1.6,0.6c-1.6,0.6 -2.2,2.4 -1.9,4.1l-10.6,4c-3.1,1.2 -4,5.2 -3.1,8.2l1,3.4l-15.3,5.6c-0.9,0.3 -1.8,1.1 -2.3,2c-0.4,0.7 -0.7,1.5 -0.7,2.1l-6.9,2.5l-2.5,0.9c-0.5,0.2 -1,0.3 -1.5,0.3c-1.8,0 -3.4,-1.1 -4.1,-2.8l-1.5,-4.2c-0.4,-1.1 -0.4,-2.6 0,-3.8c0.3,-0.7 0.9,-2.1 2.3,-2.6c5,-1.8 5.3,-5.8 5.3,-11.6v-2.3l40.2,-14.4M51.8,12l-41.8,15v3c0,6.1 -0.5,9.1 -4.7,10.6c-2.8,1 -3.9,4.9 -2.9,7.7l1.6,4.2c0.7,2.1 2.8,3.5 5,3.5c0.6,0 1.2,-0.1 1.8,-0.3l2.5,-0.9l7.5,-2.7v0v0c-0.5,-1.4 0.9,-3.4 2.3,-3.9l16.2,-5.9l-1.3,-4.4c-0.8,-2.7 0,-6 2.5,-7l11.5,-4.3c-0.5,-1.4 -0.3,-3.3 1,-3.8l2.6,-1l-3.8,-9.8z" fill="#788b9c"></path><g><path d="M9,55.5c-2,0 -3.8,-1.3 -4.5,-3.2l-1.5,-4.2c-0.8,-2.3 0,-5.7 2.2,-6.8l2.2,4.9c1.1,2.3 3.2,2.3 5.7,2.3h0.7c5.2,0 5.5,0.6 6.4,3.2l-9.6,3.5c-0.5,0.2 -1.1,0.3 -1.6,0.3z" fill="#b08159"></path><path d="M4.8,42l2,4.4c1.2,2.6 3.7,2.6 6.2,2.6h0.4h0.4c4.5,0 5,0.3 5.8,2.4l-6.6,2.4l-2.5,0.9c-0.5,0.2 -1,0.3 -1.5,0.3c-1.8,0 -3.4,-1.1 -4.1,-2.8l-1.5,-4.2c-0.4,-1.1 -0.4,-2.6 0,-3.8c0.2,-0.6 0.6,-1.6 1.4,-2.2M5.3,40.6c-2.8,1 -3.9,4.9 -2.9,7.7l1.6,4.2c0.7,2.1 2.8,3.5 5,3.5c0.6,0 1.2,-0.1 1.8,-0.3l2.5,-0.9l7.5,-2.7c-1.1,-3.1 -1.3,-4 -7.1,-4c-0.3,0 -0.5,0 -0.7,0c-2.6,0 -4.4,-0.1 -5.3,-2l-2.4,-5.5z" fill="#704e34"></path></g><g><path transform="translate(-10.55822,10.31088) rotate(-20.082)" d="M17.2,28.7h13.2v12.5h-13.2z" fill="#b6c9d6"></path><path d="M27.6,27.5l3.9,10.8l-11.5,4.2l-3.9,-10.8l11.5,-4.2M28.2,26.2l-13.4,4.9l4.6,12.7l13.4,-4.9l-4.6,-12.7z" fill="#66798f"></path></g><g fill="#788b9c"><path d="M55.7,21.8h-0.1l-26.8,9.8l-1.4,-1.7l27.5,-10.1z"></path></g><g fill="#36404d"><path d="M20.9,34.2c0.1,0.1 0.3,0.1 0.5,0.1c0.1,0 0.3,0 0.4,-0.1l8.3,-3l-0.7,-2l-8.4,3c-0.3,0.1 -0.5,0.3 -0.6,0.6c-0.1,0.3 -0.1,0.6 0,0.8c0.1,0.3 0.3,0.5 0.5,0.6zM22.7,38.9c0.1,0.1 0.3,0.1 0.5,0.1c0.1,0 0.2,0 0.4,-0.1l8.2,-3l-0.7,-2l-8.2,3c-0.3,0.1 -0.5,0.3 -0.6,0.6c-0.1,0.3 -0.1,0.6 0,0.8c-0.1,0.2 0.1,0.4 0.4,0.6z"></path></g></g></g></g></svg>