<svg xmlns="http://www.w3.org/2000/svg"  viewBox="0 0 128 128" width="128px" height="128px"><path fill="#fff" d="M88,113.5v-47c0-2.3,0.8-4.5,2.2-6.2l11.6-14.5c1.4-1.8,2.2-4,2.2-6.2V18H89v12H74V18H54v12H39V18H24v21.5 c0,2.3,0.8,4.5,2.2,6.2c3.9,4.9,11.6,14.5,11.6,14.5c1.4,1.8,2.2,4,2.2,6.2v47C55.9,110.9,72.1,110.9,88,113.5z"/><path fill="oklch(82.7% 0.119 306.383)" d="M88,113.5v-47c0-2.3,0.8-4.5,2.2-6.2l11.6-14.5c1.4-1.8,2.2-4,2.2-6.2V18H89v12h-5l0,0 c0,5.6-4.6,10-10.1,10l-34.7,0c-1.6,0-3.1,1.2-3.2,2.8c-0.1,1.7,1.3,3.2,3,3.2h30.3c3.3,0,5.1,4,2.8,6.4L71,53.6 c-0.9,0.9-1.7,1.9-2.5,2.9c-1.7,2.2-4.3,3.5-7.1,3.5h-8.2c-1.6,0-3.1,1.2-3.2,2.8c-0.1,1.7,1.3,3.2,3,3.2h2.1 c5.4,0,9.9,4.5,9.9,9.9l0,0.1v35.6C72.7,111.6,80.4,112.3,88,113.5z"/><path fill="#444b54" d="M88,115c-1.7,0-3-1.3-3-3V66.5c0-2.9,1-5.8,2.8-8.1l11.6-14.5c1-1.2,1.5-2.8,1.5-4.4V21h-9v9 c0,1.7-1.3,3-3,3H74c-1.7,0-3-1.3-3-3v-9H57v9c0,1.7-1.3,3-3,3H39c-1.7,0-3-1.3-3-3v-9h-9v18.5c0,1.6,0.5,3.1,1.5,4.4l11.6,14.5 c1.8,2.3,2.8,5.2,2.8,8.1V112c0,1.7-1.3,3-3,3s-3-1.3-3-3V66.5c0-1.6-0.5-3.1-1.5-4.4L23.8,47.6C22,45.3,21,42.4,21,39.5V18 c0-1.7,1.3-3,3-3h15c1.7,0,3,1.3,3,3v9h9v-9c0-1.7,1.3-3,3-3h20c1.7,0,3,1.3,3,3v9h9v-9c0-1.7,1.3-3,3-3h15c1.7,0,3,1.3,3,3v21.5 c0,2.9-1,5.8-2.8,8.1L92.5,62.1c-1,1.2-1.5,2.8-1.5,4.4V112C91,113.7,89.7,115,88,115z"/><path fill="#444b54" d="M124,127c-0.4,0-0.8-0.1-1.2-0.2c-32.7-14.2-69.4-16.1-103.3-5.3c-1.6,0.5-3.3-0.4-3.8-2s0.4-3.3,2-3.8 c35.3-11.2,73.5-9.2,107.5,5.6c1.5,0.7,2.2,2.4,1.6,3.9C126.3,126.3,125.2,127,124,127z"/><path fill="#444b54" d="M4,127c-1.7,0-3-1.3-3-3s1.3-3,3-3h0c1.7,0,3,1.3,3,3S5.7,127,4,127z"/><g><path fill="#444b54" d="M75.8,111.6H52.2V94.7C52.2,88.3,57.5,83,64,83h0c6.5,0,11.7,5.3,11.7,11.7V111.6z"/></g></svg>